<?xml version="1.0" standalone="no"?><svg xmlns="http://www.w3.org/2000/svg" viewBox="0 0 1440 320"><path fill="#645CAA" fill-opacity="1" d="M0,192L24,176C48,160,96,128,144,112C192,96,240,96,288,106.7C336,117,384,139,432,138.7C480,139,528,117,576,101.3C624,85,672,75,720,69.3C768,64,816,64,864,96C912,128,960,192,1008,218.7C1056,245,1104,235,1152,197.3C1200,160,1248,96,1296,90.7C1344,85,1392,139,1416,165.3L1440,192L1440,320L1416,320C1392,320,1344,320,1296,320C1248,320,1200,320,1152,320C1104,320,1056,320,1008,320C960,320,912,320,864,320C816,320,768,320,720,320C672,320,624,320,576,320C528,320,480,320,432,320C384,320,336,320,288,320C240,320,192,320,144,320C96,320,48,320,24,320L0,320Z"></path></svg>